<?xml version="1.0" encoding="iso-8859-1"?>
<!-- Generator: Adobe Illustrator 19.0.0, SVG Export Plug-In . SVG Version: 6.00 Build 0)  -->
<svg xmlns="http://www.w3.org/2000/svg" xmlns:xlink="http://www.w3.org/1999/xlink" version="1.1" id="Layer_1" x="0px" y="0px" viewBox="0 0 512 512" style="enable-background:new 0 0 512 512;" xml:space="preserve">
<path style="fill:#4D5560;" d="M489.523,399.89c-1.807-32.733-23.556-60.283-54.305-68.535l-96.036-24.203  c-8.461-2.132-17.265,1.912-21.161,9.719L256,441.162l-62.02-124.29c-3.896-7.807-12.7-11.851-21.161-9.719l-96.036,24.203  c-30.75,8.252-52.498,35.802-54.305,68.535l-5.093,92.362c-0.347,6.298,4.666,11.595,10.973,11.595H254.93H256h1.07h226.574  c6.307,0,11.32-5.297,10.973-11.595L489.523,399.89z"/>
<g>
	<path style="fill:#3F4651;" d="M75.396,372.191c-6.852-9.609-15.641-18.817-26.823-25.949   c-15.199,13.026-24.926,32.226-26.109,53.65l-5.093,92.362c-0.347,6.298,4.666,11.595,10.973,11.595h64.405l3.766-55.264   C98.363,421.458,91.18,394.326,75.396,372.191z"/>
	<path style="fill:#3F4651;" d="M436.579,372.191c6.852-9.609,15.641-18.817,26.823-25.949   c15.199,13.026,24.926,32.226,26.109,53.65l5.093,92.362c0.347,6.298-4.666,11.595-10.973,11.595h-64.405l-3.766-55.264   C413.612,421.458,420.795,394.326,436.579,372.191z"/>
	<path style="fill:#3F4651;" d="M463.402,346.242c0.941,0.806,1.859,1.636,2.758,2.489c-8.556-8.122-19.075-14.189-30.941-17.374   l-96.036-24.203c-5.631-1.419-11.408-0.09-15.795,3.251l83.134,20.951c16.744,4.493,30.808,14.718,40.449,28.377   C451.773,354.793,457.208,350.192,463.402,346.242z"/>
</g>
<path style="fill:#333A44;" d="M488.679,392.016c-0.004-0.027-0.008-0.053-0.012-0.079c-0.61-3.872-1.504-7.649-2.66-11.306  c-0.01-0.032-0.02-0.063-0.03-0.096c-1.16-3.656-2.582-7.192-4.248-10.582c-0.012-0.024-0.024-0.048-0.035-0.072  c-1.672-3.396-3.588-6.645-5.728-9.723c-0.009-0.012-0.017-0.024-0.026-0.037c-2.148-3.085-4.52-5.997-7.097-8.71  c-0.002-0.002-0.004-0.005-0.008-0.008c-0.847-0.892-1.717-1.76-2.608-2.608c-0.023-0.022-0.046-0.043-0.068-0.065  c-0.898-0.853-1.817-1.682-2.758-2.489c-6.195,3.951-11.629,8.552-16.432,13.491c8.063,11.424,13.033,25.25,13.856,40.158  l5.733,103.957h17.073c6.307,0,11.319-5.297,10.973-11.595l-5.093-92.362C489.363,397.228,489.084,394.601,488.679,392.016z"/>
<path style="fill:#FE9901;" d="M261.753,8.324c-75.327-3.231-137.736,41.652-137.736,117.047l0.028,109.524  c0.011,40.842,33.122,73.944,73.964,73.944h115.982c40.842,0,73.952-33.103,73.963-73.944l0.029-111.138  C387.983,52.793,331.977,11.336,261.753,8.324z"/>
<path style="fill:#F28F0C;" d="M261.753,8.324C254.194,8,246.767,8.168,239.519,8.796c66.705,5.527,118.806,46.518,118.806,114.961  l-0.029,111.139c-0.011,40.84-33.122,73.943-73.963,73.944h-86.327c0.001,0,0.003,0,0.004,0h115.982  c40.842,0,73.952-33.103,73.963-73.944l0.029-111.139C387.983,52.793,331.977,11.336,261.753,8.324z"/>
<path style="fill:#FED9A8;" d="M300.824,262.212c-6.258,3.845-12.809,6.75-19.436,8.396l-0.997,0.248  c-21.827,5.419-28.207,5.382-50.017-0.109c-6.549-1.648-13.024-4.529-19.213-8.334l-2.13,37.766l-35.513,21.195l82.481,157.432  l82.484-157.432L302.97,300.18L300.824,262.212z"/>
<g>
	<path style="fill:#3F4651;" d="M138.588,315.78l-2.673,30.858l34.067,14.823l13.828,45.544L256,441.162l-62.02-124.29   c-3.896-7.807-12.7-11.851-21.161-9.719L138.588,315.78z"/>
	<path style="fill:#3F4651;" d="M373.412,315.78l2.672,30.858l-34.067,14.823l-13.828,45.544l-72.189,34.156l62.02-124.29   c3.896-7.807,12.7-11.851,21.161-9.719L373.412,315.78z"/>
</g>
<path style="fill:#FED9A8;" d="M349.824,138.934V96.012c0-1.788-2.345-2.485-3.297-0.972  c-20.438,32.53-67.805,49.677-122.985,49.677c-22.121,0-61.366-5.785-61.366-5.785c-10.165,0.594-18.231,9.001-18.231,19.315v11.305  c0,10.378,8.167,18.826,18.422,19.325c2.576,34.633,34.014,73.302,67.194,81.655c22.501,5.665,29.084,5.703,51.603,0.112  l1.029-0.256c33.233-8.251,64.735-46.839,67.424-81.51c10.263-0.49,18.439-8.941,18.439-19.326v-11.305  C368.055,147.936,359.988,139.529,349.824,138.934z"/>
<path style="fill:#FFC07B;" d="M349.824,138.934v-42.94c0-1.806-2.349-2.461-3.311-0.932c-6.349,10.093-15.296,18.699-26.258,25.778  v18.095l-0.208,49.946c-2.689,34.671-34.191,73.259-67.424,81.51l-1.029,0.256c-4.078,1.012-7.627,1.838-10.849,2.48  c14.343,2.888,22.119,2.063,40.417-2.48l1.029-0.256c33.233-8.251,64.735-46.839,67.424-81.51  c10.263-0.49,18.438-8.941,18.438-19.326V158.25C368.055,147.936,359.988,139.529,349.824,138.934z"/>
<path style="fill:#F7C68B;" d="M163.843,176.97h4.906v-26.425h-4.906c-4.323,0-7.828,3.505-7.828,7.828v10.77  C156.016,173.466,159.52,176.97,163.843,176.97z"/>
<path style="fill:#F2AD5A;" d="M348.378,176.97h-4.906v-26.425h4.906c4.323,0,7.828,3.505,7.828,7.828v10.77  C356.206,173.466,352.702,176.97,348.378,176.97z"/>
<path style="fill:#F9A93E;" d="M200.48,305.283l8.551-5.103l2.109-37.389c-25.472-14.993-46.465-45.51-48.733-73.491v48.087  C162.407,266.125,177.645,291.299,200.48,305.283z"/>
<path style="fill:#F2C18B;" d="M283.877,290.802c6.595-1.638,13.116-4.484,19.363-8.243l-2.417-19.954  c-5.504,3.065-11.197,5.418-16.946,6.845l-1.029,0.256c-22.519,5.591-29.102,5.552-51.603-0.112  c-5.667-1.427-11.278-3.756-16.708-6.78C250.734,296.628,283.877,290.802,283.877,290.802z"/>
<path style="fill:#FFC07B;" d="M223.557,144.671c-21.27,0-58.349-5.344-61.175-5.757v6.658c0,0,39.905,14.972,61.175,14.972  c58.397,0,108.044-19.206,126.281-55.524v-9.011c0-1.801-2.362-2.502-3.321-0.979C326.068,127.536,278.716,144.671,223.557,144.671z  "/>
<path style="fill:#FFF4E9;" d="M255.997,247.253c17.562,0,31.799-11.854,31.799-26.478h-63.597  C224.198,235.399,238.435,247.253,255.997,247.253z"/>
<rect x="242.951" y="428.403" style="fill:#3F4651;" width="26.097" height="75.452"/>
<g>
	<circle style="fill:#343A44;" cx="255.999" cy="457.686" r="8.721"/>
	<circle style="fill:#343A44;" cx="255.999" cy="488.502" r="8.721"/>
</g>
<polygon style="fill:#FC3F49;" points="295.181,362.643 216.819,362.643 256,441.163 "/>
<polygon style="fill:#E60120;" points="281.531,390 295.181,362.644 216.819,362.644 230.47,390 "/>
<g>
	<path style="fill:#3F4651;" d="M475.939,360.121c0.009,0.012,0.017,0.024,0.026,0.037   C475.956,360.145,475.947,360.133,475.939,360.121z"/>
	<path style="fill:#3F4651;" d="M481.693,369.88c0.012,0.024,0.024,0.048,0.035,0.072   C481.717,369.928,481.705,369.904,481.693,369.88z"/>
	<path style="fill:#3F4651;" d="M466.159,348.73c0.023,0.022,0.046,0.043,0.068,0.065   C466.204,348.774,466.183,348.751,466.159,348.73z"/>
	<path style="fill:#3F4651;" d="M485.977,380.534c0.01,0.032,0.02,0.063,0.03,0.096   C485.997,380.598,485.987,380.566,485.977,380.534z"/>
	<path style="fill:#3F4651;" d="M468.835,351.403c0.002,0.002,0.004,0.005,0.008,0.008   C468.839,351.408,468.837,351.406,468.835,351.403z"/>
	<path style="fill:#3F4651;" d="M488.666,391.936c0.004,0.026,0.008,0.053,0.012,0.079   C488.675,391.99,488.671,391.962,488.666,391.936z"/>
</g>
<g>
	<path style="fill:#4D5560;" d="M486.008,380.63c1.156,3.658,2.049,7.435,2.66,11.306   C488.056,388.064,487.163,384.288,486.008,380.63z"/>
	<path style="fill:#4D5560;" d="M468.841,351.411c2.577,2.713,4.95,5.625,7.097,8.71   C473.791,357.036,471.419,354.124,468.841,351.411z"/>
	<path style="fill:#4D5560;" d="M466.227,348.796c0.891,0.847,1.76,1.716,2.608,2.608   C467.988,350.512,467.118,349.643,466.227,348.796z"/>
	<path style="fill:#4D5560;" d="M481.729,369.952c1.666,3.39,3.088,6.927,4.248,10.582   C484.817,376.878,483.395,373.342,481.729,369.952z"/>
	<path style="fill:#4D5560;" d="M489.523,399.89c-0.147-2.663-0.439-5.288-0.845-7.875c0.405,2.586,0.685,5.213,0.832,7.875   l5.733,103.957h0.013L489.523,399.89z"/>
	<path style="fill:#4D5560;" d="M475.965,360.157c2.14,3.077,4.056,6.327,5.728,9.723   C480.021,366.484,478.106,363.235,475.965,360.157z"/>
</g>
<path style="fill:#E6E6E6;" d="M430.877,270.806H81.001c-7.674,0-13.699,7.72-13.031,16.698l13.96,189.324h348.018l13.96-189.325  C444.576,278.526,438.551,270.806,430.877,270.806z"/>
<path style="fill:#CCCCCC;" d="M430.877,270.806h-30.836c7.674,0,13.7,7.72,13.031,16.698l-13.96,189.324h30.836l13.96-189.325  C444.576,278.526,438.551,270.806,430.877,270.806z"/>
<path id="SVGCleanerId_0" style="fill:#CCCCCC;" d="M443.276,476.811H68.602c-3.897,0-7.057,3.16-7.057,7.057v12.922  c0,3.897,3.16,7.057,7.057,7.057h374.674c3.897,0,7.057-3.16,7.057-7.057v-12.922C450.333,479.971,447.173,476.811,443.276,476.811z  "/>
<g>
	<path id="SVGCleanerId_0_1_" style="fill:#CCCCCC;" d="M443.276,476.811H68.602c-3.897,0-7.057,3.16-7.057,7.057v12.922   c0,3.897,3.16,7.057,7.057,7.057h374.674c3.897,0,7.057-3.16,7.057-7.057v-12.922C450.333,479.971,447.173,476.811,443.276,476.811   z"/>
</g>
<path style="fill:#FFFFFF;" d="M265.69,402.579h-19.502c-5.079,0-9.329-4.327-9.819-9.998l-2.789-32.265  c-0.562-6.502,3.994-12.134,9.819-12.134h25.079c5.824,0,10.38,5.63,9.819,12.134l-2.789,32.265  C275.018,398.253,270.769,402.579,265.69,402.579z"/>
<path style="fill:#CCCCCC;" d="M136.026,459.275H112.76c-2.228,0-3.998,1.832-3.872,4.008l0.781,13.528h31.037l-0.806-13.955  C139.783,460.846,138.084,459.275,136.026,459.275z"/>
<path style="fill:#B3B3B3;" d="M135.325,493.097h-20.276c-2.972,0-5.38-2.409-5.38-5.38v-10.906h31.037v10.906  C140.705,490.689,138.297,493.097,135.325,493.097z"/>
<path style="fill:#CCCCCC;" d="M375.852,459.275h23.266c2.228,0,3.998,1.832,3.872,4.008l-0.781,13.528h-31.037l0.806-13.955  C372.095,460.846,373.795,459.275,375.852,459.275z"/>
<g>
	<path style="fill:#B3B3B3;" d="M376.553,493.097h20.276c2.972,0,5.38-2.409,5.38-5.38v-10.906h-31.037v10.906   C371.173,490.689,373.581,493.097,376.553,493.097z"/>
	<path style="fill:#B3B3B3;" d="M450.233,482.728c-0.546-3.355-3.448-5.917-6.957-5.917h-21.741v27.036h21.741   c3.509,0,6.411-2.563,6.957-5.917V482.728z"/>
</g>
<g>
	<path style="fill:#232323;" d="M207.421,160.544c-4.725,0-8.555,3.831-8.555,8.555v6.856c0,4.725,3.831,8.555,8.555,8.555   s8.555-3.831,8.555-8.555V169.1C215.976,164.375,212.145,160.544,207.421,160.544z"/>
	<path style="fill:#232323;" d="M304.573,184.511c4.725,0,8.555-3.831,8.555-8.555V169.1c0-4.725-3.831-8.555-8.555-8.555   s-8.555,3.831-8.555,8.555v6.856C296.017,180.681,299.848,184.511,304.573,184.511z"/>
	<path style="fill:#232323;" d="M295.951,220.775c0-4.504-3.65-8.155-8.155-8.155h-63.597c-4.505,0-8.155,3.651-8.155,8.155   c0,19.097,17.923,34.634,39.953,34.634S295.951,239.872,295.951,220.775z M255.997,239.098c-9.259,0-17.291-4.146-21.17-10.168   h42.34C273.288,234.952,265.256,239.098,255.997,239.098z"/>
	<path style="fill:#232323;" d="M502.759,491.802C502.759,491.802,502.759,491.801,502.759,491.802l-5.093-92.361   c-1.756-31.829-20.581-59.36-48.541-71.783l2.916-39.552c0.524-7.045-1.79-13.904-6.351-18.817   c-3.975-4.282-9.236-6.641-14.813-6.641h-39.612c3.184-8.867,4.842-18.273,4.845-27.752c0.001-4.504-3.648-8.156-8.153-8.157   c-0.001,0-0.001,0-0.002,0c-4.503,0-8.154,3.649-8.155,8.153c-0.003,9.6-2.117,19.104-6.147,27.757h-58.511   c21.112-16.312,37.757-41.848,41.846-66.862c11.2-3.522,19.223-13.959,19.223-26.233V158.25c0-11.859-7.563-22.066-18.231-25.892   V96.012c0-5.489-4.475-9.956-9.976-9.956c-3.421,0-6.552,1.735-8.383,4.645c-18.043,28.717-61.436,45.862-116.08,45.862   c-21.262,0-59.789-5.641-60.176-5.698c-0.551-0.082-1.112-0.104-1.665-0.073c-14.529,0.849-25.911,12.91-25.911,27.456v11.305   c0,12.257,8.005,22.688,19.187,26.221c4.011,24.972,20.552,50.507,41.593,66.874h-58.221c-4.031-8.653-6.145-18.159-6.147-27.757   l-0.028-109.522c0-30.199,10.731-56.443,31.035-75.894c23.631-22.639,59.419-34.666,98.197-33.006   c71.94,3.085,118.424,45.196,118.424,107.283l-0.021,76.746c-0.001,4.504,3.648,8.156,8.153,8.157c0.001,0,0.001,0,0.002,0   c4.503,0,8.154-3.649,8.155-8.153l0.021-76.749c0-36.16-13.7-67.067-39.616-89.379c-23.769-20.463-57.302-32.61-94.42-34.202   c-43.83-1.875-82.959,11.446-110.179,37.524c-23.592,22.602-36.061,52.918-36.061,87.673l0.028,109.524   c0.002,9.479,1.66,18.884,4.845,27.753H81.001c-5.577,0-10.838,2.359-14.813,6.641c-4.56,4.913-6.875,11.771-6.351,18.81   l2.921,39.613c-27.893,12.447-46.669,39.942-48.424,71.727l-0.614,11.153c-0.249,4.497,3.196,8.343,7.693,8.591   c0.153,0.009,0.304,0.012,0.457,0.012c4.298,0,7.896-3.362,8.135-7.706l0.614-11.152c1.299-23.522,14.079-44.092,33.437-55.024   l9.095,123.34h-4.547c-8.388,0-15.212,6.824-15.212,15.212v11.824H28.356c-1.061,0-1.744-0.556-2.058-0.886   c-0.314-0.331-0.831-1.044-0.772-2.104l2.569-46.596c0.249-4.497-3.196-8.344-7.693-8.592c-4.48-0.25-8.344,3.196-8.591,7.694   l-2.569,46.596c-0.289,5.229,1.61,10.41,5.211,14.214c3.6,3.804,8.667,5.985,13.904,5.985h40.246h374.674h40.367   c5.238,0,10.307-2.182,13.906-5.986c0.45-0.475,0.873-0.972,1.269-1.489c2.375-3.096,3.759-6.872,3.946-10.769   C502.797,493.108,502.794,492.456,502.759,491.802z M231.552,262.625c-29.612-7.455-58.712-42.893-61.051-74.351   c-0.306-4.106-3.624-7.341-7.737-7.541c-5.978-0.291-10.663-5.201-10.663-11.179v-11.305c0-5.679,4.266-10.427,9.836-11.109   c6.299,0.906,40.811,5.734,61.605,5.734c28.681,0,55.48-4.566,77.499-13.204c16.38-6.426,30.146-15.141,40.627-25.631v24.895   c0,4.319,3.368,7.889,7.68,8.141c5.916,0.346,10.551,5.254,10.551,11.174v11.305c0,5.983-4.689,10.893-10.673,11.179   c-4.105,0.197-7.423,3.418-7.741,7.516c-2.442,31.495-31.64,66.873-61.261,74.227l-0.7,0.174h-47.874L231.552,262.625z    M79.533,333.423c0.029-0.627-0.018-1.263-0.14-1.899l-3.29-44.627c-0.186-2.5,0.575-4.933,2.039-6.509   c0.605-0.651,1.592-1.428,2.86-1.428h52.359h97.29h49.863h98.125h52.237c1.268,0,2.255,0.776,2.86,1.428   c1.464,1.576,2.225,4.009,2.039,6.514l-13.402,181.753h-11.524l0.283-4.904c0.188-3.251-0.992-6.479-3.235-8.856   c-2.266-2.401-5.466-3.777-8.779-3.777h-23.265c-6.373,0-11.651,4.949-12.014,11.265l-0.362,6.271H148.404l-0.362-6.274   c-0.368-6.315-5.645-11.262-12.014-11.262H112.76c-3.313,0-6.513,1.377-8.779,3.777c-2.243,2.376-3.422,5.603-3.235,8.857   l0.283,4.902H89.505L79.533,333.423z M117.811,476.341l-0.515-8.91h14.7l0.555,9.609v7.903h-14.725v-8.131   C117.824,476.654,117.82,476.497,117.811,476.341z M394.067,476.341c-0.009,0.146-0.012,0.303-0.013,0.45   c0,0.007-0.001,0.013-0.001,0.02v8.131h-14.725v-7.903l0.556-9.609h14.699L394.067,476.341z M69.699,495.692v-10.726h11.909   c0.108,0.004,0.212,0.015,0.321,0.015h19.585v2.736c0,2.979,0.968,5.737,2.605,7.975H69.699z M146.255,495.692   c1.638-2.238,2.605-4.995,2.605-7.975v-2.736h214.157v2.736c0,2.979,0.968,5.737,2.605,7.975H146.255z M407.76,495.692   c1.638-2.238,2.605-4.995,2.605-7.975v-2.736h19.585c0.108,0,0.213-0.011,0.321-0.015h11.909v10.726H407.76z M485.703,494.806   c-0.313,0.331-0.997,0.886-2.06,0.886h-25.155v-11.824c0-8.388-6.824-15.212-15.212-15.212h-4.548l9.099-123.406   c19.423,10.916,32.252,31.521,33.553,55.09l5.093,92.363C486.532,493.762,486.016,494.475,485.703,494.806z"/>
	<path style="fill:#232323;" d="M228.245,393.283c0.86,9.948,8.574,17.45,17.943,17.45h19.503c9.369,0,17.083-7.502,17.943-17.451   l2.789-32.267c0.486-5.636-1.359-11.185-5.063-15.223c-3.413-3.72-7.987-5.768-12.881-5.768H243.4   c-4.894,0-9.468,2.049-12.881,5.768c-3.704,4.038-5.55,9.586-5.062,15.223L228.245,393.283z M242.538,356.821   c0.203-0.221,0.516-0.484,0.861-0.484h25.079c0.345,0,0.658,0.263,0.861,0.484c0.613,0.67,0.925,1.714,0.833,2.792l-2.788,32.265   c-0.137,1.578-1.079,2.546-1.694,2.546h-19.503c-0.614,0-1.557-0.969-1.694-2.546l-2.787-32.265   C241.613,358.533,241.924,357.49,242.538,356.821z"/>
</g>
<g>
</g>
<g>
</g>
<g>
</g>
<g>
</g>
<g>
</g>
<g>
</g>
<g>
</g>
<g>
</g>
<g>
</g>
<g>
</g>
<g>
</g>
<g>
</g>
<g>
</g>
<g>
</g>
<g>
</g>
</svg>
