<?xml version="1.0" encoding="utf-8"?>
<!-- Generator: Adobe Illustrator 16.0.0, SVG Export Plug-In . SVG Version: 6.00 Build 0)  -->
<!DOCTYPE svg PUBLIC "-//W3C//DTD SVG 1.1//EN" "http://www.w3.org/Graphics/SVG/1.1/DTD/svg11.dtd">
<svg version="1.1" id="Secretary_1_" xmlns="http://www.w3.org/2000/svg" xmlns:xlink="http://www.w3.org/1999/xlink" x="0px"
	 y="0px" width="512px" height="512px" viewBox="0 0 512 512" enable-background="new 0 0 512 512" xml:space="preserve">
<circle id="Background_5_" fill="#9ACCB0" cx="256" cy="256" r="256"/>
<path id="Shadow" opacity="0.1" d="M509.646,290.733L325.063,106.15H256V512C385.604,512,492.693,415.688,509.646,290.733z"/>
<g id="Secretary">
	<path fill="#414042" d="M273.02,78.025h-34.268c-45.061,0-81.59,59.958-81.59,102.555c0,0-39.331,147.715-26.509,185.276H381.12
		c12.821-37.561-26.51-185.276-26.51-185.276C354.61,137.982,318.081,78.025,273.02,78.025z"/>
	<path fill="#FFD0AE" d="M349.73,360.184c-74.441,0-57.833-36.507-62.884-73.06h-61.693c-5.05,36.553,11.558,73.06-62.884,73.06
		c-47.574,0-63.807,20.847-63.807,66.709v30.9C141.903,491.754,196.585,512,256,512c59.415,0,114.097-20.245,157.537-54.207v-30.9
		C413.537,381.03,397.305,360.184,349.73,360.184z"/>
	<path opacity="0.1" d="M287.935,308.324c-0.162-6.264-0.377-12.73-1.271-19.2H224.97c-0.89,6.439-1.107,12.877-1.269,19.114
		c8.926,5.721,19.539,9.159,32.185,9.159C268.467,317.397,279.036,313.993,287.935,308.324z"/>
	<path fill="#FCB99F" d="M349.73,360.184l-54.92,8.149l-38.994-2.419l-38.856,2.419l-54.691-8.149
		c-47.574,0-63.807,20.847-63.807,66.709v30.9C141.903,491.754,196.585,512,256,512c59.415,0,114.097-20.245,157.537-54.207v-30.9
		C413.537,381.03,397.305,360.184,349.73,360.184z"/>
	<path fill="#998379" d="M287.434,366.371h-63.232l21.896,28.781l-5.859,116.395c4.989,0.289,10.012,0.453,15.074,0.453
		c5.402,0,10.761-0.188,16.08-0.518l-5.855-116.33L287.434,366.371z"/>
	<path opacity="0.2" d="M246.097,395.152h19.44c0,0-4.935,1.769-9.72,1.769S246.097,395.152,246.097,395.152z"/>
	<path fill="#E59285" d="M349.73,360.184l-54.92,8.149l-38.924,127.334l-38.925-127.334l-54.691-8.149
		c-47.574,0-63.807,20.847-63.807,66.709v30.9C141.903,491.754,196.585,512,256,512c59.415,0,114.097-20.245,157.537-54.207v-30.9
		C413.537,381.03,397.305,360.184,349.73,360.184z"/>
	<polygon fill="#FCB99F" points="221.297,332.181 216.556,332.181 186.571,358.057 218.752,403.615 255.817,365.914 	"/>
	<polygon fill="#FCB99F" points="290.44,332.181 295.078,332.181 325.063,358.057 292.882,403.615 255.817,365.914 	"/>
	<ellipse fill="#FFD0AE" cx="181.004" cy="223.44" rx="13.799" ry="16.269"/>
	<ellipse fill="#FFD0AE" cx="330.768" cy="223.44" rx="13.799" ry="16.269"/>
	<path opacity="0.1" d="M218.752,407.608l37.064-38.708l37.065,38.708l35.168-48.722l-0.024-0.007
		c-1.094-0.15-2.168-0.31-3.202-0.484l-31.941,45.22l-37.065-37.701l-37.064,37.701l-31.941-45.22
		c-1.035,0.175-2.108,0.334-3.202,0.484l-0.025,0.007L218.752,407.608z"/>
	<polygon fill="#E59285" points="208.261,339.34 162.086,360.184 201.301,395.152 181.968,407.608 255.886,495.667 	"/>
	<polygon fill="#E59285" points="303.512,339.34 349.686,360.184 310.471,395.152 329.805,407.608 255.886,495.667 	"/>
	<path opacity="0.1" d="M349.715,360.184l-39.328,34.969l2.604,1.678l40.395-36.595C352.18,360.206,350.964,360.184,349.715,360.184
		z"/>
	<path opacity="0.1" d="M161.721,360.184l39.329,34.969l-2.604,1.678l-40.395-36.595
		C159.256,360.206,160.472,360.184,161.721,360.184z"/>
	<polygon opacity="0.1" points="327.625,410.204 255.886,495.667 184.147,410.204 181.968,411.608 255.886,499.928 329.805,411.608 
			"/>
	<path fill="#FFD0AE" d="M269.608,106.525h-27.445c-36.089,0-65.346,42.325-65.346,78.415c0,0,2.113,126.771,79.068,126.771
		c76.955,0,79.068-126.771,79.068-126.771C334.954,148.85,305.698,106.525,269.608,106.525z"/>
	<path fill="#414042" d="M255.886,97.858c-69.619,0-90.927,64.707-77.209,109.545c0,0,10.574-8.668,31.946-14.574
		c0,0-1.346-17.474,3.127-40.827c-0.625,22.187,4.029,39.042,4.029,39.042c10.567-2.36,23.27-4.018,38.107-4.018
		c51.544,0,77.208,20.378,77.208,20.378C346.813,162.567,325.505,97.858,255.886,97.858z"/>
	<path opacity="0.1" d="M255.886,187.027c-14.64,0-27.191,1.616-37.674,3.927c0.544,2.555,0.935,3.974,0.935,3.974
		c10.915-2.438,24.035-4.149,39.359-4.149c39.538,0,64.443,10.651,74.587,16.625c0.042-0.318-0.04,0.314,0,0
		C333.068,207.384,307.405,187.027,255.886,187.027z"/>
	<path opacity="0.1" d="M213.792,161.535c-0.109-3.035-0.135-6.222-0.042-9.532c-4.474,23.353-3.127,40.827-3.127,40.827
		c-21.346,5.898-31.918,14.552-31.944,14.573c0.168,1.314-0.2-1.391,0,0c2.29-1.728,13.956-6.652,33.078-10.63
		C211.756,196.772,210.628,182.099,213.792,161.535z"/>
	<rect x="309.11" y="464.449" opacity="0.1" width="47.779" height="2.267"/>
	<rect x="155.11" y="464.449" opacity="0.1" width="47.779" height="2.267"/>
</g>
</svg>
